<svg id="visual" viewBox="0 0 900 450" width="900" height="450" xmlns="http://www.w3.org/2000/svg" xmlns:xlink="http://www.w3.org/1999/xlink" version="1.1"><rect x="0" y="0" width="900" height="450" fill="#000000"></rect><path d="M0 94L21.5 92.2C43 90.3 86 86.7 128.8 87.8C171.7 89 214.3 95 257.2 96.3C300 97.7 343 94.3 385.8 94.3C428.7 94.3 471.3 97.7 514.2 97.3C557 97 600 93 642.8 94.3C685.7 95.7 728.3 102.3 771.2 104.5C814 106.7 857 104.3 878.5 103.2L900 102L900 0L878.5 0C857 0 814 0 771.2 0C728.3 0 685.7 0 642.8 0C600 0 557 0 514.2 0C471.3 0 428.7 0 385.8 0C343 0 300 0 257.2 0C214.3 0 171.7 0 128.8 0C86 0 43 0 21.5 0L0 0Z" fill="#009473"></path><path d="M0 58L21.5 63.5C43 69 86 80 128.8 83.8C171.7 87.7 214.3 84.3 257.2 84.3C300 84.3 343 87.7 385.8 87.2C428.7 86.7 471.3 82.3 514.2 81.7C557 81 600 84 642.8 81.7C685.7 79.3 728.3 71.7 771.2 70.7C814 69.7 857 75.3 878.5 78.2L900 81L900 0L878.5 0C857 0 814 0 771.2 0C728.3 0 685.7 0 642.8 0C600 0 557 0 514.2 0C471.3 0 428.7 0 385.8 0C343 0 300 0 257.2 0C214.3 0 171.7 0 128.8 0C86 0 43 0 21.5 0L0 0Z" fill="#0f7d65"></path><path d="M0 57L21.5 59C43 61 86 65 128.8 64.3C171.7 63.7 214.3 58.3 257.2 59C300 59.7 343 66.3 385.8 69.2C428.7 72 471.3 71 514.2 67.8C557 64.7 600 59.3 642.8 55.8C685.7 52.3 728.3 50.7 771.2 51.7C814 52.7 857 56.3 878.5 58.2L900 60L900 0L878.5 0C857 0 814 0 771.2 0C728.3 0 685.7 0 642.8 0C600 0 557 0 514.2 0C471.3 0 428.7 0 385.8 0C343 0 300 0 257.2 0C214.3 0 171.7 0 128.8 0C86 0 43 0 21.5 0L0 0Z" fill="#186756"></path><path d="M0 43L21.5 43.7C43 44.3 86 45.7 128.8 46C171.7 46.3 214.3 45.7 257.2 46.3C300 47 343 49 385.8 47.2C428.7 45.3 471.3 39.7 514.2 39C557 38.3 600 42.7 642.8 41.7C685.7 40.7 728.3 34.3 771.2 31.5C814 28.7 857 29.3 878.5 29.7L900 30L900 0L878.5 0C857 0 814 0 771.2 0C728.3 0 685.7 0 642.8 0C600 0 557 0 514.2 0C471.3 0 428.7 0 385.8 0C343 0 300 0 257.2 0C214.3 0 171.7 0 128.8 0C86 0 43 0 21.5 0L0 0Z" fill="#1d5146"></path><path d="M0 31L21.5 28.3C43 25.7 86 20.3 128.8 20.5C171.7 20.7 214.3 26.3 257.2 29.3C300 32.3 343 32.7 385.8 32.7C428.7 32.7 471.3 32.3 514.2 30.8C557 29.3 600 26.7 642.8 23.8C685.7 21 728.3 18 771.2 16C814 14 857 13 878.5 12.5L900 12L900 0L878.5 0C857 0 814 0 771.2 0C728.3 0 685.7 0 642.8 0C600 0 557 0 514.2 0C471.3 0 428.7 0 385.8 0C343 0 300 0 257.2 0C214.3 0 171.7 0 128.8 0C86 0 43 0 21.5 0L0 0Z" fill="#1e3c36"></path></svg>