<svg id="visual" viewBox="0 0 1920 1080" width="1920" height="1080" xmlns="http://www.w3.org/2000/svg" xmlns:xlink="http://www.w3.org/1999/xlink" version="1.1"><rect x="0" y="0" width="1920" height="1080" fill="#000000"></rect><path d="M0 85L45.7 81.7C91.3 78.3 182.7 71.7 274.2 69.7C365.7 67.7 457.3 70.3 548.8 73.8C640.3 77.3 731.7 81.7 823 83.3C914.3 85 1005.7 84 1097 81.7C1188.3 79.3 1279.7 75.7 1371.2 73.8C1462.7 72 1554.3 72 1645.8 72.5C1737.3 73 1828.7 74 1874.3 74.5L1920 75L1920 0L1874.3 0C1828.7 0 1737.3 0 1645.8 0C1554.3 0 1462.7 0 1371.2 0C1279.7 0 1188.3 0 1097 0C1005.7 0 914.3 0 823 0C731.7 0 640.3 0 548.8 0C457.3 0 365.7 0 274.2 0C182.7 0 91.3 0 45.7 0L0 0Z" fill="#36ab75"></path><path d="M0 66L45.7 66.2C91.3 66.3 182.7 66.7 274.2 64.5C365.7 62.3 457.3 57.7 548.8 55.8C640.3 54 731.7 55 823 54.7C914.3 54.3 1005.7 52.7 1097 51.5C1188.3 50.3 1279.7 49.7 1371.2 48.7C1462.7 47.7 1554.3 46.3 1645.8 50C1737.3 53.7 1828.7 62.3 1874.3 66.7L1920 71L1920 0L1874.3 0C1828.7 0 1737.3 0 1645.8 0C1554.3 0 1462.7 0 1371.2 0C1279.7 0 1188.3 0 1097 0C1005.7 0 914.3 0 823 0C731.7 0 640.3 0 548.8 0C457.3 0 365.7 0 274.2 0C182.7 0 91.3 0 45.7 0L0 0Z" fill="#359a6d"></path><path d="M0 43L45.7 41.2C91.3 39.3 182.7 35.7 274.2 37.3C365.7 39 457.3 46 548.8 49.7C640.3 53.3 731.7 53.7 823 54.3C914.3 55 1005.7 56 1097 54.3C1188.3 52.7 1279.7 48.3 1371.2 47C1462.7 45.7 1554.3 47.3 1645.8 47.5C1737.3 47.7 1828.7 46.3 1874.3 45.7L1920 45L1920 0L1874.3 0C1828.7 0 1737.3 0 1645.8 0C1554.3 0 1462.7 0 1371.2 0C1279.7 0 1188.3 0 1097 0C1005.7 0 914.3 0 823 0C731.7 0 640.3 0 548.8 0C457.3 0 365.7 0 274.2 0C182.7 0 91.3 0 45.7 0L0 0Z" fill="#348a64"></path><path d="M0 41L45.7 37.3C91.3 33.7 182.7 26.3 274.2 26.5C365.7 26.7 457.3 34.3 548.8 37C640.3 39.7 731.7 37.3 823 34.2C914.3 31 1005.7 27 1097 24.5C1188.3 22 1279.7 21 1371.2 23.7C1462.7 26.3 1554.3 32.7 1645.8 35.2C1737.3 37.7 1828.7 36.3 1874.3 35.7L1920 35L1920 0L1874.3 0C1828.7 0 1737.3 0 1645.8 0C1554.3 0 1462.7 0 1371.2 0C1279.7 0 1188.3 0 1097 0C1005.7 0 914.3 0 823 0C731.7 0 640.3 0 548.8 0C457.3 0 365.7 0 274.2 0C182.7 0 91.3 0 45.7 0L0 0Z" fill="#337a5b"></path><path d="M0 16L45.7 15.3C91.3 14.7 182.7 13.3 274.2 14.3C365.7 15.3 457.3 18.7 548.8 20.8C640.3 23 731.7 24 823 23.7C914.3 23.3 1005.7 21.7 1097 21.5C1188.3 21.3 1279.7 22.7 1371.2 20.8C1462.7 19 1554.3 14 1645.8 13C1737.3 12 1828.7 15 1874.3 16.5L1920 18L1920 0L1874.3 0C1828.7 0 1737.3 0 1645.8 0C1554.3 0 1462.7 0 1371.2 0C1279.7 0 1188.3 0 1097 0C1005.7 0 914.3 0 823 0C731.7 0 640.3 0 548.8 0C457.3 0 365.7 0 274.2 0C182.7 0 91.3 0 45.7 0L0 0Z" fill="#326b52"></path></svg>