<svg id="visual" viewBox="0 0 1920 1080" width="1920" height="1080" xmlns="http://www.w3.org/2000/svg" xmlns:xlink="http://www.w3.org/1999/xlink" version="1.1"><rect x="0" y="0" width="1920" height="1080" fill="#000000"></rect><path d="M0 57L13.8 53C27.7 49 55.3 41 83.2 37.7C111 34.3 139 35.7 166.8 36.2C194.7 36.7 222.3 36.3 250.2 42.7C278 49 306 62 333.8 65.5C361.7 69 389.3 63 417.2 58.8C445 54.7 473 52.3 500.8 47.7C528.7 43 556.3 36 584.2 40C612 44 640 59 667.8 66.3C695.7 73.7 723.3 73.3 751.2 68.5C779 63.7 807 54.3 834.8 49C862.7 43.7 890.3 42.3 918.2 44.7C946 47 974 53 1001.8 59.3C1029.7 65.7 1057.3 72.3 1085.2 75.2C1113 78 1141 77 1168.8 74.5C1196.7 72 1224.3 68 1252.2 62.5C1280 57 1308 50 1335.8 49C1363.7 48 1391.3 53 1419.2 56.8C1447 60.7 1475 63.3 1502.8 64C1530.7 64.7 1558.3 63.3 1586.2 61.7C1614 60 1642 58 1669.8 52.2C1697.7 46.3 1725.3 36.7 1753.2 38.5C1781 40.3 1809 53.7 1836.8 60C1864.7 66.3 1892.3 65.7 1906.2 65.3L1920 65L1920 0L1906.2 0C1892.3 0 1864.7 0 1836.8 0C1809 0 1781 0 1753.2 0C1725.3 0 1697.7 0 1669.8 0C1642 0 1614 0 1586.2 0C1558.3 0 1530.7 0 1502.8 0C1475 0 1447 0 1419.2 0C1391.3 0 1363.7 0 1335.8 0C1308 0 1280 0 1252.2 0C1224.3 0 1196.7 0 1168.8 0C1141 0 1113 0 1085.2 0C1057.3 0 1029.7 0 1001.8 0C974 0 946 0 918.2 0C890.3 0 862.7 0 834.8 0C807 0 779 0 751.2 0C723.3 0 695.7 0 667.8 0C640 0 612 0 584.2 0C556.3 0 528.7 0 500.8 0C473 0 445 0 417.2 0C389.3 0 361.7 0 333.8 0C306 0 278 0 250.2 0C222.3 0 194.7 0 166.8 0C139 0 111 0 83.2 0C55.3 0 27.7 0 13.8 0L0 0Z" fill="#0b7860" stroke-linecap="round" stroke-linejoin="miter"></path></svg>